<?xml version="1.0" encoding="UTF-8"?><svg id="Laag_1" xmlns="http://www.w3.org/2000/svg" viewBox="0 0 291.66 86.46"><defs><style>.cls-1{fill:#80bc00;}.cls-2{fill:#54565a;}</style></defs><path class="cls-1" d="m82.53,78.72c13.92,9.99,31.94,10.07,45.67,1.62-7.13,3.74-15.39,5.52-23.99,4.67l-1.44-.14,2.5-25.13c-2.51-.22-5-1.1-7.2-2.68-6.52-4.68-8.02-13.77-3.36-20.3l-21.66-15.55c-13.25,18.5-9.02,44.24,9.47,57.51Z"/><path class="cls-1" d="m62.8,38.37c-2.11,13.74-11.26,20.18-20.02,18.34l-3.99,26.36c13.12,1.97,25.73-2.47,34.64-10.98-9.33-11.5-12.01-27.12-7.1-41.04l2.49-9.47s-4.45,6.64-6.02,16.79Z"/><path class="cls-1" d="m71.89,20.37l.84-1.17,20.02,14.37c1.45-2.05,3.44-3.75,5.89-4.86,7.32-3.31,15.94-.07,19.26,7.24l24.3-10.98c-9.39-20.73-33.8-29.93-54.54-20.56-17.76,8.03-27.06,27.08-23.5,45.42-1.1-10.08,1.36-20.57,7.73-29.46Z"/><path class="cls-2" d="m136.16,64.51c0,1.99.2,2.63.99,3.13.94.6,2.04.7,9.14.7q10.83,0,10.83-2.93c0-1.99-.74-2.48-3.97-2.53l-7.95-.3-5.36-.25-2.68-.1c-8.19-.25-10.48-2.33-10.48-9.63,0-6.31,1.79-9.14,6.36-10.13,1.94-.4,6.51-.6,14.45-.6,9.63,0,13.11.45,15.44,2.04,1.99,1.34,2.78,3.43,2.78,7.35,0,.2,0,.89-.05,1.54h-9.73c-.1-1.84-.25-2.28-.99-2.73-.84-.5-2.09-.6-9.24-.6-8.54,0-9.24.2-9.24,2.63,0,1.24.45,1.89,1.49,2.14.89.25,3.62.4,10.63.6,10.93.35,13.06.6,15.2,1.94,2.28,1.49,3.13,3.72,3.13,8.34,0,5.76-1.39,8.59-4.82,9.88-1.99.75-6.16.99-16.04.99s-14.3-.45-16.64-1.94c-2.28-1.44-3.03-3.38-3.03-7.95v-1.59h9.78Z"/><path class="cls-2" d="m191.19,42.37l9.83,21.5,9.88-21.5h18.18v33.12h-9.93l.25-24.78h-1.69l-12.46,24.78h-8.39l-12.46-24.78h-1.79l.25,24.78h-9.93v-33.12h18.27Z"/><path class="cls-2" d="m246.77,42.37v33.12h-10.58v-33.12h10.58Z"/><path class="cls-2" d="m291.66,42.37v8.44h-14.75v24.68h-10.58v-24.68h-14.75v-8.44h40.08Z"/><path class="cls-1" d="m70.89,10.64s-.05-.07-.08-.1C63.27,3.87,53.6,0,42.8,0,19.16,0,0,19.35,0,43.23s19.16,43.23,42.8,43.23c9.97,0,18.99-3.64,26.26-9.42-7.03,4.99-16.01,7.78-25.9,7.78-2.08,0-4.13-.16-6.13-.45l3.78-24.83c-6.17-.35-12.26-5.99-12.71-14.24-.22-4.13,1.91-8.6,4.01-9.96L12.87,18.93c-6.58,7.19-10.13,16.2-10.57,26.51-.25,5.88,1.07,11.38,3.48,16.29-2.78-5.57-4.36-11.85-4.36-18.5C1.42,20.26,20.11,1.65,43.17,1.65c12.7,0,21.29,5.29,26.44,10.04h0s0,.02.02.02c.31.36.83.41,1.18.11.35-.3.38-.83.08-1.19Z"/><path class="cls-1" d="m29.39,33.02l1.53,1.31c3.13-4.09,7.91-6.82,13.33-7.21-.43-.03-.87-.07-1.31-.07-5.36,0-10.18,2.3-13.55,5.97Z"/></svg>